# Blender 4.0.2
# www.blender.org
mtllib birthday_hat.mtl
o Cone
v 0.186451 -0.500000 -0.408214
v 0.328475 -0.500000 -0.305789
v 0.420492 -0.500000 -0.156810
v 0.448493 -0.500000 0.016042
v 0.408214 -0.500000 0.186451
v 0.305789 -0.500000 0.328475
v 0.156810 -0.500000 0.420492
v -0.016042 -0.500000 0.448493
v -0.186451 -0.500000 0.408214
v -0.328475 -0.500000 0.305789
v -0.420492 -0.500000 0.156810
v -0.448493 -0.500000 -0.016042
v -0.408214 -0.500000 -0.186451
v -0.305789 -0.500000 -0.328475
v -0.156810 -0.500000 -0.420492
v 0.016042 -0.500000 -0.448493
v 0.000000 0.500000 0.000000
v 0.000000 0.381288 0.000000
v 0.087955 0.491845 0.155766
v -0.120962 0.491845 0.131785
v -0.162716 0.491845 -0.074320
v 0.020401 0.491845 -0.177716
v 0.175322 0.491845 -0.035514
v -0.020401 0.670731 0.177716
v -0.175322 0.670731 0.035514
v -0.087955 0.670731 -0.155766
v 0.120962 0.670731 -0.131785
v 0.162716 0.670731 0.074320
v 0.000000 0.781288 0.000000
v 0.159943 -0.269952 -0.350178
v -0.262315 -0.269952 -0.281776
v -0.360710 -0.269952 0.134516
v -0.013761 -0.269952 0.384730
v 0.350178 -0.269952 0.159943
v 0.281776 -0.269952 -0.262314
v -0.134516 -0.269952 -0.360710
v -0.384730 -0.269952 -0.013761
v -0.159943 -0.269952 0.350178
v 0.262315 -0.269952 0.281776
v 0.360710 -0.269952 -0.134516
v 0.013761 -0.269952 -0.384730
v -0.350178 -0.269952 -0.159943
v -0.281776 -0.269952 0.262315
v 0.134516 -0.269952 0.360710
v 0.384730 -0.269952 0.013761
v -0.240765 -0.157890 0.224136
v -0.328735 -0.157890 -0.011758
v -0.224136 -0.157890 -0.240765
v 0.136665 -0.157890 -0.299212
v 0.114938 -0.157890 0.308211
v -0.136665 -0.157890 0.299212
v -0.308211 -0.157890 0.114938
v 0.328735 -0.157890 0.011758
v 0.224136 -0.157890 0.240765
v -0.011758 -0.157890 0.328735
v 0.308211 -0.157890 -0.114938
v 0.299212 -0.157890 0.136665
v 0.011758 -0.157890 -0.328735
v 0.240765 -0.157890 -0.224136
v -0.299212 -0.157890 -0.136665
v -0.114938 -0.157890 -0.308211
v -0.155762 0.042804 -0.167318
v -0.079875 0.042804 -0.214189
v -0.008171 0.042804 0.228452
v 0.214189 0.042804 -0.079875
v 0.079875 0.042804 0.214189
v 0.207935 0.042804 0.094974
v -0.094974 0.042804 0.207935
v 0.094974 0.042804 -0.207935
v 0.008171 0.042804 -0.228452
v -0.214189 0.042804 0.079875
v -0.167318 0.042804 0.155762
v 0.167318 0.042804 -0.155762
v 0.228452 0.042804 0.008171
v -0.228452 0.042804 -0.008171
v -0.207935 0.042804 -0.094974
v 0.155762 0.042804 0.167318
v -0.062305 0.143372 -0.167074
v -0.162196 0.143372 -0.074083
v 0.006374 0.143372 -0.178200
v -0.006374 0.143372 0.178200
v 0.121499 0.143372 0.130513
v -0.167074 0.143372 0.062305
v 0.167074 0.143372 -0.062305
v -0.130513 0.143372 0.121499
v 0.062305 0.143372 0.167074
v 0.074083 0.143372 -0.162196
v 0.130513 0.143372 -0.121499
v 0.162196 0.143372 0.074083
v 0.178200 0.143372 0.006374
v -0.074083 0.143372 0.162196
v -0.121499 0.143372 -0.130513
v -0.178200 0.143372 -0.006374
v 0.207732 -0.500000 -0.454805
v 0.365965 -0.500000 -0.340690
v 0.468484 -0.500000 -0.174707
v 0.499680 -0.500000 0.017873
v 0.454805 -0.500000 0.207732
v 0.340690 -0.500000 0.365965
v 0.174707 -0.500000 0.468484
v -0.017873 -0.500000 0.499680
v -0.207732 -0.500000 0.454805
v -0.365965 -0.500000 0.340690
v -0.468484 -0.500000 0.174707
v -0.499680 -0.500000 -0.017873
v -0.454805 -0.500000 -0.207732
v -0.340690 -0.500000 -0.365965
v -0.174707 -0.500000 -0.468484
v 0.017873 -0.500000 -0.499680
v 0.186451 -0.420337 -0.408214
v 0.328475 -0.420337 -0.305789
v 0.420492 -0.420337 -0.156810
v 0.448493 -0.420337 0.016042
v 0.408214 -0.420337 0.186451
v 0.305789 -0.420337 0.328475
v 0.156810 -0.420337 0.420492
v -0.016042 -0.420337 0.448493
v -0.186451 -0.420337 0.408214
v -0.328475 -0.420337 0.305789
v -0.420492 -0.420337 0.156810
v -0.448493 -0.420337 -0.016042
v -0.408214 -0.420337 -0.186451
v -0.305789 -0.420337 -0.328475
v -0.156810 -0.420337 -0.420492
v 0.016042 -0.420337 -0.448493
v 0.164729 -0.559972 -0.360656
v 0.290207 -0.559972 -0.270163
v 0.371503 -0.559972 -0.138541
v 0.396242 -0.559972 0.014173
v 0.360656 -0.559972 0.164729
v 0.270163 -0.559972 0.290207
v 0.138541 -0.559972 0.371503
v -0.014173 -0.559972 0.396242
v -0.164729 -0.559972 0.360656
v -0.290207 -0.559972 0.270163
v -0.371503 -0.559972 0.138541
v -0.396242 -0.559972 -0.014173
v -0.360656 -0.559972 -0.164729
v -0.270163 -0.559972 -0.290207
v -0.138541 -0.559972 -0.371503
v 0.014173 -0.559972 -0.396242
v 0.000000 0.624915 -0.000000
v 0.000000 0.312076 0.000000
v 0.118393 0.460893 0.209671
v -0.162823 0.460893 0.177391
v -0.219026 0.460893 -0.100040
v 0.027462 0.460893 -0.239217
v 0.235995 0.460893 -0.047805
v -0.027462 0.701684 0.239217
v -0.235995 0.701684 0.047805
v -0.118393 0.701684 -0.209671
v 0.162823 0.701684 -0.177391
v 0.219026 0.701684 0.100040
v -0.000000 0.850501 -0.000000
v 0.180702 -0.244969 -0.395627
v -0.296360 -0.244969 -0.318347
v -0.407527 -0.244969 0.151975
v -0.015547 -0.244969 0.434664
v 0.395627 -0.244969 0.180702
v 0.318347 -0.244969 -0.296360
v -0.151975 -0.244969 -0.407527
v -0.434664 -0.244969 -0.015547
v -0.180702 -0.244969 0.395627
v 0.296360 -0.244969 0.318347
v 0.407527 -0.244969 -0.151975
v 0.015547 -0.244969 -0.434664
v -0.395627 -0.244969 -0.180702
v -0.318347 -0.244969 0.296360
v 0.151975 -0.244969 0.407527
v 0.434664 -0.244969 0.015547
v -0.277337 -0.132907 0.258182
v -0.378669 -0.132907 -0.013544
v -0.258182 -0.132907 -0.277337
v 0.157424 -0.132907 -0.344661
v 0.132397 -0.132907 0.355028
v -0.157424 -0.132907 0.344661
v -0.355028 -0.132907 0.132397
v 0.378669 -0.132907 0.013544
v 0.258182 -0.132907 0.277337
v -0.013544 -0.132907 0.378669
v 0.355028 -0.132907 -0.132397
v 0.344661 -0.132907 0.157424
v 0.013544 -0.132907 -0.378669
v 0.277337 -0.132907 -0.258182
v -0.344661 -0.132907 -0.157424
v -0.132397 -0.132907 -0.355028
v -0.189808 0.067787 -0.203890
v -0.097334 0.067787 -0.261006
v -0.009957 0.067787 0.278386
v 0.261006 0.067787 -0.097334
v 0.097334 0.067787 0.261006
v 0.253385 0.067787 0.115733
v -0.115733 0.067787 0.253385
v 0.115733 0.067787 -0.253385
v 0.009957 0.067787 -0.278386
v -0.261006 0.067787 0.097334
v -0.203890 0.067787 0.189808
v 0.203890 0.067787 -0.189808
v 0.278386 0.067787 0.009957
v -0.278386 0.067787 -0.009957
v -0.253385 0.067787 -0.115733
v 0.189808 0.067787 0.203890
v -0.079764 0.168355 -0.213891
v -0.207646 0.168355 -0.094842
v 0.008160 0.168355 -0.228134
v -0.008160 0.168355 0.228134
v 0.155545 0.168355 0.167085
v -0.213891 0.168355 0.079764
v 0.213891 0.168355 -0.079764
v -0.167085 0.168355 0.155545
v 0.079764 0.168355 0.213891
v 0.094842 0.168355 -0.207646
v 0.167085 0.168355 -0.155545
v 0.207646 0.168355 0.094842
v 0.228134 0.168355 0.008160
v -0.094842 0.168355 0.207646
v -0.155545 0.168355 -0.167085
v -0.228134 0.168355 -0.008160
v 0.246434 -0.551436 -0.539540
v 0.434148 -0.551436 -0.404163
v 0.555768 -0.551436 -0.207257
v 0.592776 -0.551436 0.021203
v 0.539540 -0.551436 0.246434
v 0.404164 -0.551436 0.434148
v 0.207257 -0.551436 0.555768
v -0.021203 -0.551436 0.592776
v -0.246434 -0.551436 0.539540
v -0.434148 -0.551436 0.404163
v -0.555768 -0.551436 0.207257
v -0.592776 -0.551436 -0.021203
v -0.539540 -0.551436 -0.246434
v -0.404164 -0.551436 -0.434148
v -0.207257 -0.551436 -0.555768
v 0.021203 -0.551436 -0.592776
v 0.162896 -0.470918 -0.356642
v 0.286977 -0.470918 -0.267157
v 0.367369 -0.470918 -0.136999
v 0.391832 -0.470918 0.014015
v 0.356642 -0.470918 0.162896
v 0.267157 -0.470918 0.286977
v 0.136999 -0.470918 0.367369
v -0.014015 -0.470918 0.391832
v -0.162896 -0.470918 0.356642
v -0.286977 -0.470918 0.267157
v -0.367369 -0.470918 0.136999
v -0.391832 -0.470918 -0.014015
v -0.356642 -0.470918 -0.162896
v -0.267157 -0.470918 -0.286977
v -0.136999 -0.470918 -0.367369
v 0.014015 -0.470918 -0.391832
vn 0.5252 0.4403 -0.7282
vn 0.7639 0.4403 -0.4718
vn 0.8863 0.4403 -0.1436
vn 0.8738 0.4403 0.2065
vn 0.7282 0.4403 0.5252
vn 0.4718 0.4403 0.7639
vn 0.1436 0.4403 0.8863
vn -0.2065 0.4403 0.8738
vn -0.5252 0.4403 0.7282
vn -0.7639 0.4403 0.4718
vn -0.8863 0.4403 0.1436
vn -0.8738 0.4403 -0.2065
vn -0.7282 0.4403 -0.5252
vn -0.4718 0.4403 -0.7639
vn -0.5255 -0.0000 -0.8508
vn -0.1436 0.4403 -0.8863
vn 0.2065 0.4403 -0.8738
vn -0.0692 -0.7947 0.6031
vn 0.5522 -0.7947 0.2522
vn -0.5950 -0.7947 0.1205
vn -0.2985 -0.7947 -0.5286
vn 0.4105 -0.7947 -0.4472
vn 0.8935 -0.1876 0.4081
vn -0.1120 -0.1876 0.9758
vn -0.9627 -0.1876 0.1950
vn -0.4829 -0.1876 -0.8553
vn 0.6642 -0.1876 -0.7236
vn 0.4829 0.1876 0.8553
vn -0.6642 0.1876 0.7236
vn -0.8935 0.1876 -0.4081
vn 0.1120 0.1876 -0.9758
vn 0.9627 0.1876 -0.1950
vn 0.2985 0.7947 0.5286
vn -0.4105 0.7947 0.4472
vn -0.5522 0.7947 -0.2522
vn 0.0692 0.7947 -0.6031
vn 0.5950 0.7947 -0.1205
vn -0.0000 -1.0000 -0.0000
vn 0.5255 -0.0000 0.8508
vn -0.1599 -0.0000 -0.9871
vn 0.1599 -0.0000 0.9871
vn 0.2300 -0.0000 -0.9732
vn -0.5849 -0.0000 0.8111
vn -0.2300 -0.0000 0.9732
vn 0.5849 -0.0000 -0.8111
vn -0.8508 -0.0000 0.5255
vn 0.8508 -0.0000 -0.5255
vn -0.9871 -0.0000 0.1599
vn 0.9871 -0.0000 -0.1599
vn -0.9732 -0.0000 -0.2300
vn 0.9732 -0.0000 0.2300
vn -0.8111 -0.0000 -0.5849
vn 0.8111 -0.0000 0.5849
vn -0.5219 -0.4517 0.7236
vn -0.7590 -0.4517 0.4688
vn -0.8807 -0.4517 0.1427
vn -0.8682 -0.4517 -0.2052
vn -0.7236 -0.4517 -0.5219
vn -0.4688 -0.4517 -0.7590
vn -0.1427 -0.4517 -0.8807
vn 0.2052 -0.4517 -0.8682
vn 0.5219 -0.4517 -0.7236
vn 0.7590 -0.4517 -0.4688
vn 0.8807 -0.4517 -0.1427
vn 0.8682 -0.4517 0.2052
vn 0.7236 -0.4517 0.5219
vn 0.4688 -0.4517 0.7590
vn 0.5249 0.0485 0.8498
vn 0.1427 -0.4517 0.8807
vn -0.2052 -0.4517 0.8682
vn -0.7639 -0.4403 0.4718
vn -0.8738 -0.4403 -0.2065
vn -0.4718 -0.4403 -0.7639
vn 0.2065 -0.4403 -0.8738
vn 0.7639 -0.4403 -0.4718
vn 0.8738 -0.4403 0.2065
vn 0.4718 -0.4403 0.7639
vn 0.1436 -0.4403 0.8863
vn -0.5252 -0.4403 0.7282
vn -0.8863 -0.4403 0.1436
vn -0.7282 -0.4403 -0.5252
vn -0.1436 -0.4403 -0.8863
vn 0.5252 -0.4403 -0.7282
vn 0.8863 -0.4403 -0.1436
vn 0.7282 -0.4403 0.5252
vn -0.2065 -0.4403 0.8738
vn -0.0259 0.9990 0.0359
vn -0.0376 0.9990 0.0232
vn -0.0436 0.9990 0.0071
vn -0.0430 0.9990 -0.0102
vn -0.0359 0.9990 -0.0259
vn -0.0232 0.9990 -0.0376
vn -0.0071 0.9990 -0.0436
vn 0.0102 0.9990 -0.0430
vn 0.0259 0.9990 -0.0359
vn 0.0376 0.9990 -0.0232
vn 0.0436 0.9990 -0.0071
vn 0.0430 0.9990 0.0102
vn 0.0359 0.9990 0.0259
vn 0.0232 0.9990 0.0376
vn 0.0071 0.9990 0.0436
vn -0.0102 0.9990 0.0430
vn -0.0000 1.0000 -0.0000
vn -0.5249 0.0485 -0.8498
vn 0.1597 0.0485 0.9860
vn -0.1597 0.0485 -0.9860
vn -0.2298 0.0485 0.9720
vn 0.5842 0.0485 -0.8101
vn 0.2298 0.0485 -0.9720
vn -0.5842 0.0485 0.8101
vn 0.8498 0.0485 -0.5249
vn -0.8498 0.0485 0.5249
vn 0.9860 0.0485 -0.1597
vn -0.9860 0.0485 0.1597
vn 0.9720 0.0485 0.2298
vn -0.9720 0.0485 -0.2298
vn 0.8101 0.0485 0.5842
vn -0.8101 0.0485 -0.5842
vt 0.250000 0.490000
vt 0.250000 0.434788
vt 0.320715 0.420722
vt 0.341844 0.471731
vt 0.380665 0.380665
vt 0.419706 0.419706
vt 0.420722 0.320715
vt 0.471731 0.341844
vt 0.434788 0.250000
vt 0.490000 0.250000
vt 0.420722 0.179285
vt 0.471731 0.158156
vt 0.380665 0.119335
vt 0.419706 0.080294
vt 0.320715 0.079278
vt 0.341844 0.028269
vt 0.250000 0.065212
vt 0.250000 0.010000
vt 0.179285 0.079278
vt 0.158156 0.028269
vt 0.119335 0.119335
vt 0.080294 0.080294
vt 0.079278 0.179285
vt 0.028269 0.158156
vt 0.065212 0.250000
vt 0.010000 0.250000
vt 0.079278 0.320715
vt 0.028269 0.341844
vt 0.119335 0.380665
vt 0.080294 0.419706
vt 0.949017 0.167565
vt 0.902321 0.097679
vt 0.179285 0.420722
vt 0.158156 0.471731
vt 0.181819 0.000000
vt 0.272728 0.157461
vt 0.090910 0.157461
vt 0.363637 0.000000
vt 0.454546 0.157461
vt 0.909091 0.000000
vt 1.000000 0.157461
vt 0.818182 0.157461
vt 0.727273 0.000000
vt 0.636364 0.157461
vt 0.545455 0.000000
vt 0.363637 0.314921
vt 0.181819 0.314921
vt 0.909091 0.314921
vt 0.727273 0.314921
vt 0.545455 0.314921
vt 0.000000 0.314921
vt 0.272728 0.472382
vt 0.090910 0.472382
vt 0.818182 0.472382
vt 0.636364 0.472382
vt 0.454546 0.472382
vt 0.310423 0.395875
vt 0.361648 0.361648
vt 0.395875 0.310423
vt 0.407894 0.250000
vt 0.395875 0.189577
vt 0.361648 0.138352
vt 0.310423 0.104125
vt 0.250000 0.092106
vt 0.189577 0.104125
vt 0.138352 0.138352
vt 0.104125 0.189577
vt 0.092106 0.250000
vt 0.104125 0.310423
vt 0.138352 0.361648
vt 0.189577 0.395875
vt 0.250000 0.407894
vt 0.291991 0.351375
vt 0.327589 0.327589
vt 0.351375 0.208009
vt 0.327589 0.172411
vt 0.208009 0.148625
vt 0.172411 0.172411
vt 0.148625 0.291991
vt 0.172411 0.327589
vt 0.250000 0.359727
vt 0.359727 0.250000
vt 0.250000 0.140273
vt 0.140273 0.250000
vt 0.351375 0.291991
vt 0.291991 0.148625
vt 0.148625 0.208009
vt 0.208009 0.351375
vt 0.282754 0.329075
vt 0.310522 0.310522
vt 0.217246 0.170925
vt 0.189478 0.189478
vt 0.250000 0.335591
vt 0.250000 0.164409
vt 0.329075 0.282754
vt 0.335591 0.250000
vt 0.170925 0.217246
vt 0.164409 0.250000
vt 0.329075 0.217246
vt 0.310522 0.189478
vt 0.170925 0.282754
vt 0.189478 0.310522
vt 0.282754 0.170925
vt 0.217246 0.329075
vt 0.250000 0.250000
vt 0.832435 0.449017
vt 0.750000 0.465414
vt 0.750000 0.490000
vt 0.841844 0.471731
vt 0.902321 0.402321
vt 0.919706 0.419706
vt 0.949017 0.332435
vt 0.971731 0.341844
vt 0.965414 0.250000
vt 0.990000 0.250000
vt 0.971731 0.158156
vt 0.919706 0.080294
vt 0.832435 0.050983
vt 0.841844 0.028269
vt 0.750000 0.034586
vt 0.750000 0.010000
vt 0.667565 0.050983
vt 0.658156 0.028269
vt 0.597679 0.097679
vt 0.580294 0.080294
vt 0.550983 0.167565
vt 0.528269 0.158156
vt 0.534586 0.250000
vt 0.510000 0.250000
vt 0.550983 0.332435
vt 0.528269 0.341844
vt 0.597679 0.402321
vt 0.580294 0.419706
vt 0.667565 0.449017
vt 0.658156 0.471731
s 0
usemtl Material.007
f 94/1/1 30/2/1 35/3/1 95/4/1
f 95/4/2 35/3/2 40/5/2 96/6/2
f 96/6/3 40/5/3 45/7/3 97/8/3
f 97/8/4 45/7/4 34/9/4 98/10/4
f 98/10/5 34/9/5 39/11/5 99/12/5
f 99/12/6 39/11/6 44/13/6 100/14/6
f 100/14/7 44/13/7 33/15/7 101/16/7
f 101/16/8 33/15/8 38/17/8 102/18/8
f 56/58/2 59/57/2 73/73/2 65/74/2
f 50/62/6 54/61/6 77/75/6 66/76/6
f 59/57/1 49/72/1 69/81/1 73/73/1
f 54/61/5 57/60/5 67/82/5 77/75/5
f 57/60/4 53/59/4 74/85/4 67/82/4
f 51/64/8 55/63/8 64/86/8 68/83/8
f 53/59/3 56/58/3 65/74/3 74/85/3
f 55/63/7 50/62/7 66/76/7 64/86/7
f 81/103/7 86/100/7 17/105/7
f 84/90/2 88/89/2 17/105/2
f 88/89/1 87/93/1 17/105/1
f 89/96/4 90/95/4 17/105/4
f 90/95/3 84/90/3 17/105/3
f 86/100/6 82/99/6 17/105/6
f 82/99/5 89/96/5 17/105/5
f 91/94/8 81/103/8 17/105/8
usemtl Material.008
f 102/18/9 38/17/9 43/19/9 103/20/9
f 103/20/10 43/19/10 32/21/10 104/22/10
f 104/22/11 32/21/11 37/23/11 105/24/11
f 105/24/12 37/23/12 42/25/12 106/26/12
f 106/26/13 42/25/13 31/27/13 107/28/13
f 107/28/14 31/27/14 36/29/14 108/30/14
f 6/31/15 7/32/15 116/32/15 115/31/15
f 108/30/16 36/29/16 41/33/16 109/34/16
f 109/34/17 41/33/17 30/2/17 94/1/17
f 52/66/10 46/65/10 72/77/10 71/78/10
f 61/70/14 48/69/14 62/79/14 63/80/14
f 46/65/9 51/64/9 68/83/9 72/77/9
f 48/69/13 60/68/13 76/84/13 62/79/13
f 60/68/12 47/67/12 75/87/12 76/84/12
f 58/71/16 61/70/16 63/80/16 70/88/16
f 47/67/11 52/66/11 71/78/11 75/87/11
f 49/72/17 58/71/17 70/88/17 69/81/17
f 83/92/10 85/91/10 17/105/10
f 85/91/9 91/94/9 17/105/9
f 79/98/12 93/97/12 17/105/12
f 93/97/11 83/92/11 17/105/11
f 78/102/14 92/101/14 17/105/14
f 92/101/13 79/98/13 17/105/13
f 80/104/16 78/102/16 17/105/16
f 87/93/17 80/104/17 17/105/17
f 2/106/38 1/107/38 94/108/38 95/109/38
f 3/110/38 2/106/38 95/109/38 96/111/38
f 4/112/38 3/110/38 96/111/38 97/113/38
f 5/114/38 4/112/38 97/113/38 98/115/38
f 6/31/38 5/114/38 98/115/38 99/116/38
f 7/32/38 6/31/38 99/116/38 100/117/38
f 8/118/38 7/32/38 100/117/38 101/119/38
f 9/120/38 8/118/38 101/119/38 102/121/38
f 10/122/38 9/120/38 102/121/38 103/123/38
f 11/124/38 10/122/38 103/123/38 104/125/38
f 12/126/38 11/124/38 104/125/38 105/127/38
f 13/128/38 12/126/38 105/127/38 106/129/38
f 14/130/38 13/128/38 106/129/38 107/131/38
f 15/132/38 14/130/38 107/131/38 108/133/38
f 16/134/38 15/132/38 108/133/38 109/135/38
f 1/107/38 16/134/38 109/135/38 94/108/38
f 110/107/38 111/106/38 112/110/38 113/112/38 114/114/38 115/31/38 116/32/38 117/118/38 118/120/38 119/122/38 120/124/38 121/126/38 122/128/38 123/130/38 124/132/38 125/134/38
f 14/130/39 15/132/39 124/132/39 123/130/39
f 7/32/40 8/118/40 117/118/40 116/32/40
f 15/132/41 16/134/41 125/134/41 124/132/41
f 8/118/42 9/120/42 118/120/42 117/118/42
f 1/107/43 2/106/43 111/106/43 110/107/43
f 16/134/44 1/107/44 110/107/44 125/134/44
f 9/120/45 10/122/45 119/122/45 118/120/45
f 2/106/46 3/110/46 112/110/46 111/106/46
f 10/122/47 11/124/47 120/124/47 119/122/47
f 3/110/48 4/112/48 113/112/48 112/110/48
f 11/124/49 12/126/49 121/126/49 120/124/49
f 4/112/50 5/114/50 114/114/50 113/112/50
f 12/126/51 13/128/51 122/128/51 121/126/51
f 5/114/52 6/31/52 115/31/52 114/114/52
f 13/128/53 14/130/53 123/130/53 122/128/53
usemtl Material.002
f 40/5/2 35/3/2 59/57/2 56/58/2
f 34/9/4 45/7/4 53/59/4 57/60/4
f 44/13/6 39/11/6 54/61/6 50/62/6
f 38/17/8 33/15/8 55/63/8 51/64/8
f 35/3/1 30/2/1 49/72/1 59/57/1
f 45/7/3 40/5/3 56/58/3 53/59/3
f 39/11/5 34/9/5 57/60/5 54/61/5
f 33/15/7 44/13/7 50/62/7 55/63/7
f 65/74/2 73/73/2 88/89/2 84/90/2
f 73/73/1 69/81/1 87/93/1 88/89/1
f 67/82/4 74/85/4 90/95/4 89/96/4
f 74/85/3 65/74/3 84/90/3 90/95/3
f 66/76/6 77/75/6 82/99/6 86/100/6
f 77/75/5 67/82/5 89/96/5 82/99/5
f 68/83/8 64/86/8 81/103/8 91/94/8
f 64/86/7 66/76/7 86/100/7 81/103/7
usemtl Material.005
f 32/21/10 43/19/10 46/65/10 52/66/10
f 42/25/12 37/23/12 47/67/12 60/68/12
f 36/29/14 31/27/14 48/69/14 61/70/14
f 41/33/16 36/29/16 61/70/16 58/71/16
f 43/19/9 38/17/9 51/64/9 46/65/9
f 37/23/11 32/21/11 52/66/11 47/67/11
f 31/27/13 42/25/13 60/68/13 48/69/13
f 30/2/17 41/33/17 58/71/17 49/72/17
f 71/78/10 72/77/10 85/91/10 83/92/10
f 72/77/9 68/83/9 91/94/9 85/91/9
f 76/84/12 75/87/12 93/97/12 79/98/12
f 75/87/11 71/78/11 83/92/11 93/97/11
f 63/80/14 62/79/14 92/101/14 78/102/14
f 62/79/13 76/84/13 79/98/13 92/101/13
f 70/88/16 63/80/16 78/102/16 80/104/16
f 69/81/17 70/88/17 80/104/17 87/93/17
usemtl Material.003
f 18/35/18 19/36/18 20/37/18
f 19/36/19 18/38/19 23/39/19
f 18/40/20 20/41/20 21/42/20
f 18/43/21 21/42/21 22/44/21
f 18/45/22 22/44/22 23/39/22
f 19/36/23 23/39/23 28/46/23
f 20/37/24 19/36/24 24/47/24
f 21/42/25 20/41/25 25/48/25
f 22/44/26 21/42/26 26/49/26
f 23/39/27 22/44/27 27/50/27
f 19/36/28 28/46/28 24/47/28
f 20/37/29 24/47/29 25/51/29
f 21/42/30 25/48/30 26/49/30
f 22/44/31 26/49/31 27/50/31
f 23/39/32 27/50/32 28/46/32
f 24/47/33 28/46/33 29/52/33
f 25/51/34 24/47/34 29/53/34
f 26/49/35 25/48/35 29/54/35
f 27/50/36 26/49/36 29/55/36
f 28/46/37 27/50/37 29/56/37
usemtl OH_Outline_Material
f 219/1/54 220/4/54 160/3/54 155/2/54
f 220/4/55 221/6/55 165/5/55 160/3/55
f 221/6/56 222/8/56 170/7/56 165/5/56
f 222/8/57 223/10/57 159/9/57 170/7/57
f 223/10/58 224/12/58 164/11/58 159/9/58
f 224/12/59 225/14/59 169/13/59 164/11/59
f 225/14/60 226/16/60 158/15/60 169/13/60
f 226/16/61 227/18/61 163/17/61 158/15/61
f 227/18/62 228/20/62 168/19/62 163/17/62
f 228/20/63 229/22/63 157/21/63 168/19/63
f 229/22/64 230/24/64 162/23/64 157/21/64
f 230/24/65 231/26/65 167/25/65 162/23/65
f 231/26/66 232/28/66 156/27/66 167/25/66
f 232/28/67 233/30/67 161/29/67 156/27/67
f 131/31/68 240/31/68 241/32/68 132/32/68
f 233/30/69 234/34/69 166/33/69 161/29/69
f 234/34/70 219/1/70 155/2/70 166/33/70
f 143/35/36 145/37/36 144/36/36
f 144/36/35 148/39/35 143/38/35
f 143/40/37 146/42/37 145/41/37
f 143/43/33 147/44/33 146/42/33
f 143/45/34 148/39/34 147/44/34
f 144/36/30 153/46/30 148/39/30
f 145/37/31 149/47/31 144/36/31
f 146/42/32 150/48/32 145/41/32
f 147/44/28 151/49/28 146/42/28
f 148/39/29 152/50/29 147/44/29
f 144/36/26 149/47/26 153/46/26
f 145/37/27 150/51/27 149/47/27
f 146/42/23 151/49/23 150/48/23
f 147/44/24 152/50/24 151/49/24
f 148/39/25 153/46/25 152/50/25
f 149/47/21 154/52/21 153/46/21
f 150/51/22 154/53/22 149/47/22
f 151/49/19 154/54/19 150/48/19
f 152/50/18 154/55/18 151/49/18
f 153/46/20 154/56/20 152/50/20
f 165/5/71 181/58/71 184/57/71 160/3/71
f 159/9/72 182/60/72 178/59/72 170/7/72
f 169/13/73 175/62/73 179/61/73 164/11/73
f 163/17/74 176/64/74 180/63/74 158/15/74
f 157/21/75 177/66/75 171/65/75 168/19/75
f 167/25/76 185/68/76 172/67/76 162/23/76
f 161/29/77 186/70/77 173/69/77 156/27/77
f 166/33/78 183/71/78 186/70/78 161/29/78
f 160/3/79 184/57/79 174/72/79 155/2/79
f 170/7/80 178/59/80 181/58/80 165/5/80
f 164/11/81 179/61/81 182/60/81 159/9/81
f 158/15/82 180/63/82 175/62/82 169/13/82
f 168/19/83 171/65/83 176/64/83 163/17/83
f 162/23/84 172/67/84 177/66/84 157/21/84
f 156/27/85 173/69/85 185/68/85 167/25/85
f 155/2/86 174/72/86 183/71/86 166/33/86
f 181/58/71 190/74/71 198/73/71 184/57/71
f 175/62/73 191/76/73 202/75/73 179/61/73
f 177/66/75 196/78/75 197/77/75 171/65/75
f 186/70/77 188/80/77 187/79/77 173/69/77
f 184/57/79 198/73/79 194/81/79 174/72/79
f 179/61/81 202/75/81 192/82/81 182/60/81
f 171/65/83 197/77/83 193/83/83 176/64/83
f 173/69/85 187/79/85 201/84/85 185/68/85
f 182/60/72 192/82/72 199/85/72 178/59/72
f 176/64/74 193/83/74 189/86/74 180/63/74
f 185/68/76 201/84/76 200/87/76 172/67/76
f 183/71/78 195/88/78 188/80/78 186/70/78
f 178/59/80 199/85/80 190/74/80 181/58/80
f 180/63/82 189/86/82 191/76/82 175/62/82
f 172/67/84 200/87/84 196/78/84 177/66/84
f 174/72/86 194/81/86 195/88/86 183/71/86
f 190/74/71 209/90/71 213/89/71 198/73/71
f 196/78/75 208/92/75 210/91/75 197/77/75
f 198/73/79 213/89/79 212/93/79 194/81/79
f 197/77/83 210/91/83 216/94/83 193/83/83
f 192/82/72 214/96/72 215/95/72 199/85/72
f 201/84/76 204/98/76 218/97/76 200/87/76
f 199/85/80 215/95/80 209/90/80 190/74/80
f 200/87/84 218/97/84 208/92/84 196/78/84
f 191/76/73 211/100/73 207/99/73 202/75/73
f 188/80/77 203/102/77 217/101/77 187/79/77
f 202/75/81 207/99/81 214/96/81 192/82/81
f 187/79/85 217/101/85 204/98/85 201/84/85
f 193/83/74 216/94/74 206/103/74 189/86/74
f 195/88/78 205/104/78 203/102/78 188/80/78
f 189/86/82 206/103/82 211/100/82 191/76/82
f 194/81/86 212/93/86 205/104/86 195/88/86
f 206/103/82 142/105/82 211/100/82
f 208/92/75 142/105/75 210/91/75
f 210/91/83 142/105/83 216/94/83
f 204/98/76 142/105/76 218/97/76
f 218/97/84 142/105/84 208/92/84
f 203/102/77 142/105/77 217/101/77
f 217/101/85 142/105/85 204/98/85
f 205/104/78 142/105/78 203/102/78
f 212/93/86 142/105/86 205/104/86
f 209/90/71 142/105/71 213/89/71
f 213/89/79 142/105/79 212/93/79
f 214/96/72 142/105/72 215/95/72
f 215/95/80 142/105/80 209/90/80
f 211/100/73 142/105/73 207/99/73
f 207/99/81 142/105/81 214/96/81
f 216/94/74 142/105/74 206/103/74
f 127/106/87 220/109/87 219/108/87 126/107/87
f 128/110/88 221/111/88 220/109/88 127/106/88
f 129/112/89 222/113/89 221/111/89 128/110/89
f 130/114/90 223/115/90 222/113/90 129/112/90
f 131/31/91 224/116/91 223/115/91 130/114/91
f 132/32/92 225/117/92 224/116/92 131/31/92
f 133/118/93 226/119/93 225/117/93 132/32/93
f 134/120/94 227/121/94 226/119/94 133/118/94
f 135/122/95 228/123/95 227/121/95 134/120/95
f 136/124/96 229/125/96 228/123/96 135/122/96
f 137/126/97 230/127/97 229/125/97 136/124/97
f 138/128/98 231/129/98 230/127/98 137/126/98
f 139/130/99 232/131/99 231/129/99 138/128/99
f 140/132/100 233/133/100 232/131/100 139/130/100
f 141/134/101 234/135/101 233/133/101 140/132/101
f 126/107/102 219/108/102 234/135/102 141/134/102
f 235/107/103 250/134/103 249/132/103 248/130/103 247/128/103 246/126/103 245/124/103 244/122/103 243/120/103 242/118/103 241/32/103 240/31/103 239/114/103 238/112/103 237/110/103 236/106/103
f 139/130/104 248/130/104 249/132/104 140/132/104
f 132/32/105 241/32/105 242/118/105 133/118/105
f 140/132/106 249/132/106 250/134/106 141/134/106
f 133/118/107 242/118/107 243/120/107 134/120/107
f 126/107/108 235/107/108 236/106/108 127/106/108
f 141/134/109 250/134/109 235/107/109 126/107/109
f 134/120/110 243/120/110 244/122/110 135/122/110
f 127/106/111 236/106/111 237/110/111 128/110/111
f 135/122/112 244/122/112 245/124/112 136/124/112
f 128/110/113 237/110/113 238/112/113 129/112/113
f 136/124/114 245/124/114 246/126/114 137/126/114
f 129/112/115 238/112/115 239/114/115 130/114/115
f 137/126/116 246/126/116 247/128/116 138/128/116
f 130/114/117 239/114/117 240/31/117 131/31/117
f 138/128/118 247/128/118 248/130/118 139/130/118
