# Blender 4.0.2
# www.blender.org
mtllib vinyl_player.mtl
o Curve
v -1.345420 -0.250000 -0.900000
v 1.345420 -0.250000 -0.900000
v 1.380934 -0.250000 -0.896959
v 1.410544 -0.250000 -0.888553
v 1.434786 -0.250000 -0.875854
v 1.454198 -0.250000 -0.859936
v 1.469317 -0.250000 -0.841872
v 1.480677 -0.250000 -0.822734
v 1.488818 -0.250000 -0.803597
v 1.494275 -0.250000 -0.785533
v 1.497585 -0.250000 -0.769614
v 1.499284 -0.250000 -0.756916
v 1.499910 -0.250000 -0.748510
v 1.500000 -0.250000 -0.745469
v 1.500000 -0.250000 0.745469
v 1.496958 -0.250000 0.780972
v 1.488550 -0.250000 0.810572
v 1.475847 -0.250000 0.834807
v 1.459924 -0.250000 0.854213
v 1.441854 -0.250000 0.869326
v 1.422710 -0.250000 0.880684
v 1.403566 -0.250000 0.888821
v 1.385496 -0.250000 0.894277
v 1.369573 -0.250000 0.897585
v 1.356870 -0.250000 0.899285
v 1.348461 -0.250000 0.899911
v 1.250000 -0.200000 0.900000
v -1.250000 -0.200000 0.900000
v -1.380934 -0.250000 0.896959
v -1.410544 -0.250000 0.888553
v -1.434786 -0.250000 0.875854
v -1.454198 -0.250000 0.859936
v -1.469317 -0.250000 0.841872
v -1.480677 -0.250000 0.822734
v -1.488818 -0.250000 0.803597
v -1.494275 -0.250000 0.785533
v -1.497585 -0.250000 0.769614
v -1.499284 -0.250000 0.756916
v -1.499910 -0.250000 0.748510
v -1.500000 -0.250000 0.745469
v -1.500000 -0.250000 -0.745469
v -1.496958 -0.250000 -0.780972
v -1.488550 -0.250000 -0.810572
v -1.475847 -0.250000 -0.834807
v -1.459924 -0.250000 -0.854213
v -1.441854 -0.250000 -0.869326
v -1.422710 -0.250000 -0.880684
v -1.403566 -0.250000 -0.888821
v -1.385496 -0.250000 -0.894277
v -1.369573 -0.250000 -0.897585
v -1.356870 -0.250000 -0.899285
v -1.348461 -0.250000 -0.899911
v 1.488550 0.250000 0.810572
v 1.475847 0.250000 0.834807
v -1.345420 0.250000 -0.900000
v 1.345420 0.250000 -0.900000
v 1.380934 0.250000 -0.896959
v 1.410544 0.250000 -0.888553
v 1.434786 0.250000 -0.875854
v 1.454198 0.250000 -0.859936
v 1.469317 0.250000 -0.841872
v 1.480677 0.250000 -0.822734
v 1.499284 0.250000 -0.756916
v 1.499910 0.250000 -0.748510
v 1.500000 0.250000 -0.745469
v 1.496958 0.250000 0.780972
v 1.459924 0.250000 0.854213
v 1.441854 0.250000 0.869326
v 1.422710 0.250000 0.880684
v 1.403566 0.250000 0.888821
v 1.385496 0.250000 0.894277
v 1.369573 0.250000 0.897585
v 1.356870 0.250000 0.899285
v 1.348461 0.250000 0.899911
v 1.250000 0.200000 0.900000
v -1.496958 0.250000 -0.780972
v -1.488550 0.250000 -0.810572
v -1.475847 0.250000 -0.834807
v -1.348461 0.250000 -0.899911
v -1.459924 0.250000 -0.854213
v -1.441854 0.250000 -0.869326
v -1.422710 0.250000 -0.880684
v -1.500000 0.250000 -0.745469
v -1.250000 0.200000 0.900000
v -1.403566 0.250000 -0.888821
v 1.488818 0.250000 -0.803597
v -1.500000 0.250000 0.745469
v -1.385496 0.250000 -0.894277
v 1.494275 0.250000 -0.785533
v -1.380934 0.250000 0.896959
v -1.410544 0.250000 0.888553
v -1.369573 0.250000 -0.897585
v 1.497585 0.250000 -0.769614
v -1.434786 0.250000 0.875854
v -1.356870 0.250000 -0.899285
v -1.454198 0.250000 0.859936
v -1.469317 0.250000 0.841872
v -1.480677 0.250000 0.822734
v 1.500000 0.250000 0.745469
v -1.488818 0.250000 0.803597
v -1.494275 0.250000 0.785533
v -1.497585 0.250000 0.769614
v -1.499284 0.250000 0.756916
v -1.499910 0.250000 0.748510
v 1.345420 -0.250000 0.900000
v -1.345420 -0.250000 0.900000
v 1.345420 0.250000 0.900000
v -1.345420 0.250000 0.900000
v -1.346613 -0.257898 -0.981144
v 1.348891 -0.257725 -0.981213
v 1.395675 -0.257464 -0.977486
v 1.440923 -0.257433 -0.964693
v 1.480032 -0.257437 -0.944201
v 1.511783 -0.257472 -0.918088
v 1.535963 -0.257530 -0.889068
v 1.553387 -0.257596 -0.859566
v 1.565335 -0.257660 -0.831329
v 1.573070 -0.257717 -0.805579
v 1.577679 -0.257764 -0.783280
v 1.580064 -0.257804 -0.765321
v 1.580987 -0.257848 -0.752719
v 1.581153 -0.257898 -0.746662
v 1.581221 -0.257725 0.748941
v 1.577493 -0.257463 0.795717
v 1.564694 -0.257433 0.840960
v 1.544192 -0.257437 0.880061
v 1.518070 -0.257472 0.911804
v 1.489042 -0.257530 0.935974
v 1.459533 -0.257596 0.953392
v 1.431291 -0.257660 0.965333
v 1.405537 -0.257717 0.973065
v 1.383235 -0.257764 0.977672
v 1.365273 -0.257804 0.980056
v 1.352670 -0.257848 0.980978
v 1.250000 -0.200000 0.981134
v -1.250000 -0.200000 0.981134
v -1.395675 -0.257464 0.977486
v -1.440923 -0.257433 0.964693
v -1.480032 -0.257437 0.944201
v -1.511783 -0.257472 0.918088
v -1.535962 -0.257530 0.889069
v -1.553387 -0.257596 0.859566
v -1.565335 -0.257660 0.831329
v -1.573070 -0.257717 0.805579
v -1.577679 -0.257764 0.783280
v -1.580064 -0.257804 0.765321
v -1.580987 -0.257848 0.752719
v -1.581153 -0.257898 0.746662
v -1.581221 -0.257725 -0.748941
v -1.577493 -0.257463 -0.795717
v -1.564694 -0.257433 -0.840960
v -1.544192 -0.257437 -0.880061
v -1.518070 -0.257472 -0.911804
v -1.489042 -0.257530 -0.935974
v -1.459533 -0.257596 -0.953392
v -1.431291 -0.257660 -0.965333
v -1.405537 -0.257717 -0.973065
v -1.383235 -0.257764 -0.977672
v -1.365273 -0.257804 -0.980056
v -1.352670 -0.257848 -0.980978
v 1.564694 0.257433 0.840960
v 1.544192 0.257437 0.880061
v -1.346613 0.257898 -0.981144
v 1.348891 0.257725 -0.981213
v 1.395675 0.257464 -0.977486
v 1.440923 0.257433 -0.964693
v 1.480032 0.257437 -0.944201
v 1.511783 0.257472 -0.918088
v 1.535963 0.257530 -0.889068
v 1.553387 0.257596 -0.859566
v 1.580064 0.257804 -0.765321
v 1.580987 0.257848 -0.752719
v 1.581153 0.257898 -0.746662
v 1.577493 0.257463 0.795717
v 1.518070 0.257472 0.911804
v 1.489042 0.257530 0.935974
v 1.459533 0.257596 0.953392
v 1.431291 0.257660 0.965333
v 1.405537 0.257717 0.973065
v 1.383235 0.257764 0.977672
v 1.365273 0.257804 0.980056
v 1.352670 0.257848 0.980978
v 1.250000 0.200000 0.981134
v -1.577493 0.257463 -0.795717
v -1.564694 0.257433 -0.840960
v -1.544192 0.257437 -0.880061
v -1.352670 0.257848 -0.980978
v -1.518070 0.257472 -0.911804
v -1.489042 0.257530 -0.935974
v -1.459533 0.257596 -0.953392
v -1.581221 0.257725 -0.748941
v -1.250000 0.200000 0.981134
v -1.431291 0.257660 -0.965333
v 1.565335 0.257660 -0.831329
v -1.581153 0.257898 0.746662
v -1.405537 0.257717 -0.973065
v 1.573070 0.257717 -0.805579
v -1.395675 0.257464 0.977486
v -1.440923 0.257433 0.964693
v -1.383235 0.257764 -0.977672
v 1.577679 0.257764 -0.783280
v -1.480032 0.257437 0.944201
v -1.365273 0.257804 -0.980056
v -1.511783 0.257472 0.918088
v -1.535962 0.257530 0.889069
v -1.553387 0.257596 0.859566
v 1.581221 0.257725 0.748941
v -1.565335 0.257660 0.831329
v -1.573070 0.257717 0.805579
v -1.577679 0.257764 0.783280
v -1.580064 0.257804 0.765321
v -1.580987 0.257848 0.752719
v 1.346613 -0.257898 0.981139
v -1.348889 -0.257721 0.981174
v 1.346613 0.257898 0.981139
v -1.348889 0.257721 0.981174
vn -0.0000 -1.0000 -0.0000
vn -0.0000 1.0000 -0.0000
vn 0.9573 -0.0000 -0.2892
vn 0.4640 -0.0000 -0.8858
vn -0.2731 -0.0000 0.9620
vn 0.6341 -0.0000 -0.7733
vn -0.2035 -0.0000 -0.9791
vn 0.7669 -0.0000 -0.6418
vn 0.9791 -0.0000 -0.2036
vn 0.8599 -0.0000 -0.5105
vn -0.4640 -0.0000 0.8858
vn 0.9972 -0.0000 -0.0743
vn -0.1326 -0.0000 -0.9912
vn 0.9996 -0.0000 -0.0294
vn 0.9912 -0.0000 -0.1327
vn 0.9619 -0.0000 0.2733
vn -0.6341 -0.0000 0.7733
vn 0.7731 -0.0000 0.6343
vn -0.0742 -0.0000 -0.9972
vn 0.6416 -0.0000 0.7671
vn -0.7669 -0.0000 0.6418
vn 0.3912 -0.0000 0.9203
vn -0.0853 -0.0000 0.9964
vn 0.2890 -0.0000 0.9573
vn -0.8599 -0.0000 0.5105
vn 0.1326 -0.0000 0.9912
vn 1.0000 -0.0000 -0.0000
vn 0.0742 -0.0000 0.9972
vn -0.9202 -0.0000 0.3914
vn 0.0294 -0.0000 0.9996
vn 0.2035 -0.0000 0.9791
vn -0.9619 -0.0000 -0.2733
vn 0.9964 -0.0000 0.0854
vn -0.8857 -0.0000 -0.4642
vn -0.9573 -0.0000 0.2892
vn -0.0294 -0.0000 -0.9996
vn -0.9791 -0.0000 0.2036
vn -0.7731 -0.0000 -0.6343
vn -0.9912 -0.0000 0.1327
vn -0.6416 -0.0000 -0.7671
vn -0.9972 -0.0000 0.0743
vn -0.5102 -0.0000 -0.8600
vn -0.9996 -0.0000 0.0294
vn -0.9964 -0.0000 -0.0854
vn 0.5102 -0.0000 0.8600
vn -0.0000 -0.0000 1.0000
vn -0.3912 -0.0000 -0.9203
vn 0.8857 -0.0000 0.4642
vn 0.9202 -0.0000 -0.3914
vn -0.0000 -0.0000 -1.0000
vn -1.0000 -0.0000 -0.0000
vn 0.0853 -0.0000 -0.9964
vn -0.2890 -0.0000 -0.9573
vn 0.2731 -0.0000 -0.9620
vn -0.9577 -0.0000 0.2877
vn -0.4641 -0.0000 0.8858
vn 0.2721 -0.0000 -0.9623
vn -0.6352 -0.0000 0.7724
vn 0.2023 -0.0000 0.9793
vn -0.7683 -0.0000 0.6401
vn -0.9793 -0.0000 0.2024
vn -0.8610 -0.0000 0.5085
vn 0.4641 -0.0000 -0.8858
vn -0.9973 -0.0000 0.0731
vn 0.1316 -0.0000 0.9913
vn -0.9996 -0.0000 0.0273
vn -0.9913 -0.0000 0.1317
vn -0.9622 -0.0000 -0.2722
vn 0.6352 -0.0000 -0.7724
vn -0.7721 -0.0000 -0.6354
vn 0.0730 -0.0000 0.9973
vn -0.6399 -0.0000 -0.7685
vn 0.7683 -0.0000 -0.6401
vn -0.3895 -0.0000 -0.9210
vn 0.0786 -0.0000 -0.9969
vn -0.2875 -0.0000 -0.9578
vn 0.8610 -0.0000 -0.5085
vn -0.1316 -0.0000 -0.9913
vn -0.0730 -0.0000 -0.9973
vn 0.9210 -0.0000 -0.3897
vn -0.0265 -0.0000 -0.9996
vn -0.2023 -0.0000 -0.9793
vn 0.9622 -0.0000 0.2722
vn -0.9968 -0.0000 -0.0795
vn 0.8856 -0.0000 0.4644
vn 0.9577 -0.0000 -0.2877
vn 0.0273 -0.0000 0.9996
vn 0.9793 -0.0000 -0.2024
vn 0.7721 -0.0000 0.6354
vn 0.9913 -0.0000 -0.1317
vn 0.6399 -0.0000 0.7685
vn 0.9973 -0.0000 -0.0731
vn 0.5083 -0.0000 0.8612
vn 0.9996 -0.0000 -0.0273
vn 0.9968 -0.0000 0.0795
vn -0.5083 -0.0000 -0.8612
vn 0.3894 -0.0000 0.9210
vn -0.8856 -0.0000 -0.4644
vn -0.9210 -0.0000 0.3897
vn -0.0794 -0.0000 0.9968
vn 0.2875 -0.0000 0.9578
vn -0.2721 -0.0000 0.9623
vn -0.0000 -0.0004 -1.0000
vn -0.0000 0.0004 -1.0000
vn -0.0004 -0.0000 -1.0000
vn 0.0001 -0.0000 -1.0000
vt 0.019608 0.000000
vt 0.039216 0.000000
vt 0.058824 0.000000
vt 0.078431 0.000000
vt 0.098039 0.000000
vt 0.117647 0.000000
vt 0.137255 0.000000
vt 0.156863 0.000000
vt 0.176471 0.000000
vt 0.196078 0.000000
vt 0.215686 0.000000
vt 0.235294 0.000000
vt 0.254902 0.000000
vt 0.274510 0.000000
vt 0.294118 0.000000
vt 0.313726 0.000000
vt 0.333333 0.000000
vt 0.352941 0.000000
vt 0.372549 0.000000
vt 0.392157 0.000000
vt 0.411765 0.000000
vt 0.431373 0.000000
vt 0.450980 0.000000
vt 0.470588 0.000000
vt 0.490196 0.000000
vt 0.509804 0.000000
vt 0.529412 0.000000
vt 0.549020 0.000000
vt 0.568627 0.000000
vt 0.588235 0.000000
vt 0.607843 0.000000
vt 0.627451 0.000000
vt 0.647059 0.000000
vt 0.666667 0.000000
vt 0.686275 0.000000
vt 0.705882 0.000000
vt 0.725490 0.000000
vt 0.745098 0.000000
vt 0.764706 0.000000
vt 0.784314 0.000000
vt 0.803922 0.000000
vt 0.823529 0.000000
vt 0.843137 0.000000
vt 0.862745 0.000000
vt 0.882353 0.000000
vt 0.901961 0.000000
vt 0.921569 0.000000
vt 0.941176 0.000000
vt 0.960784 0.000000
vt 0.980392 0.000000
vt 1.000000 0.000000
vt 0.000000 0.000000
vt 0.000000 0.000000
vt 1.000000 1.000000
vt -0.000000 1.000000
vt 0.512312 0.000000
vt 0.526904 0.000000
vt 0.512312 0.000000
s 0
usemtl SIDES
f 2/1/1 3/2/1 4/3/1 5/4/1 6/5/1 7/6/1 8/7/1 9/8/1 10/9/1 11/10/1 12/11/1 13/12/1 14/13/1 15/14/1 16/15/1 17/16/1 18/17/1 19/18/1 20/19/1 21/20/1 22/21/1 23/22/1 24/23/1 25/24/1 26/25/1 105/26/1 106/27/1 29/28/1 30/29/1 31/30/1 32/31/1 33/32/1 34/33/1 35/34/1 36/35/1 37/36/1 38/37/1 39/38/1 40/39/1 41/40/1 42/41/1 43/42/1 44/43/1 45/44/1 46/45/1 47/46/1 48/47/1 49/48/1 50/49/1 51/50/1 52/51/1 1/52/1
f 10/9/3 9/8/3 86/8/3 89/9/3
f 5/4/4 4/3/4 58/3/4 59/4/4
f 30/29/5 29/28/5 90/28/5 91/29/5
f 6/5/6 5/4/6 59/4/6 60/5/6
f 50/49/7 49/48/7 88/48/7 92/49/7
f 7/6/8 6/5/8 60/5/8 61/6/8
f 11/10/9 10/9/9 89/9/9 93/10/9
f 8/7/10 7/6/10 61/6/10 62/7/10
f 31/30/11 30/29/11 91/29/11 94/30/11
f 13/12/12 12/11/12 63/11/12 64/12/12
f 51/50/13 50/49/13 92/49/13 95/50/13
f 14/13/14 13/12/14 64/12/14 65/13/14
f 12/11/15 11/10/15 93/10/15 63/11/15
f 17/16/16 16/15/16 66/15/16 53/16/16
f 32/31/17 31/30/17 94/30/17 96/31/17
f 19/18/18 18/17/18 54/17/18 67/18/18
f 52/51/19 51/50/19 95/50/19 79/51/19
f 20/19/20 19/18/20 67/18/20 68/19/20
f 33/32/21 32/31/21 96/31/21 97/32/21
f 22/21/22 21/20/22 69/20/22 70/21/22
f 29/28/23 106/27/23 108/27/23 90/28/23
f 23/22/24 22/21/24 70/21/24 71/22/24
f 34/33/25 33/32/25 97/32/25 98/33/25
f 25/24/26 24/23/26 72/23/26 73/24/26
f 15/14/27 14/13/27 65/13/27 99/14/27
f 26/25/28 25/24/28 73/24/28 74/25/28
f 35/34/29 34/33/29 98/33/29 100/34/29
f 105/26/30 26/25/30 74/25/30 107/26/30
f 24/23/31 23/22/31 71/22/31 72/23/31
f 43/42/32 42/41/32 76/41/32 77/42/32
f 16/15/33 15/14/33 99/14/33 66/15/33
f 44/43/34 43/42/34 77/42/34 78/43/34
f 36/35/35 35/34/35 100/34/35 101/35/35
f 1/52/36 52/51/36 79/51/36 55/52/36
f 37/36/37 36/35/37 101/35/37 102/36/37
f 45/44/38 44/43/38 78/43/38 80/44/38
f 38/37/39 37/36/39 102/36/39 103/37/39
f 46/45/40 45/44/40 80/44/40 81/45/40
f 39/38/41 38/37/41 103/37/41 104/38/41
f 47/46/42 46/45/42 81/45/42 82/46/42
f 40/39/43 39/38/43 104/38/43 87/39/43
f 42/41/44 41/40/44 83/40/44 76/41/44
f 21/20/45 20/19/45 68/19/45 69/20/45
f 48/47/47 47/46/47 82/46/47 85/47/47
f 18/17/48 17/16/48 53/16/48 54/17/48
f 9/8/49 8/7/49 62/7/49 86/8/49
f 2/1/50 1/52/50 55/52/50 56/1/50
f 41/40/51 40/39/51 87/39/51 83/40/51
f 3/2/52 2/1/52 56/1/52 57/2/52
f 49/48/53 48/47/53 85/47/53 88/48/53
f 4/3/54 3/2/54 57/2/54 58/3/54
f 27/56/46 28/57/46 106/27/46 105/26/46
f 84/57/46 75/58/46 107/26/46 108/27/46
f 28/57/46 84/57/46 108/27/46 106/27/46
f 75/58/46 27/56/46 105/26/46 107/26/46
usemtl TOP
f 56/1/2 55/52/2 79/51/2 95/50/2 92/49/2 88/48/2 85/47/2 82/46/2 81/45/2 80/44/2 78/43/2 77/42/2 76/41/2 83/40/2 87/39/2 104/38/2 103/37/2 102/36/2 101/35/2 100/34/2 98/33/2 97/32/2 96/31/2 94/30/2 91/29/2 90/28/2 108/27/2 107/26/2 74/25/2 73/24/2 72/23/2 71/22/2 70/21/2 69/20/2 68/19/2 67/18/2 54/17/2 53/16/2 66/15/2 99/14/2 65/13/2 64/12/2 63/11/2 93/10/2 89/9/2 86/8/2 62/7/2 61/6/2 60/5/2 59/4/2 58/3/2 57/2/2
usemtl SCREEN
f 28/53/46 27/51/46 75/54/46 84/55/46
usemtl OUTLINE
f 110/1/2 109/52/2 160/51/2 159/50/2 158/49/2 157/48/2 156/47/2 155/46/2 154/45/2 153/44/2 152/43/2 151/42/2 150/41/2 149/40/2 148/39/2 147/38/2 146/37/2 145/36/2 144/35/2 143/34/2 142/33/2 141/32/2 140/31/2 139/30/2 138/29/2 137/28/2 214/27/2 213/26/2 134/25/2 133/24/2 132/23/2 131/22/2 130/21/2 129/20/2 128/19/2 127/18/2 126/17/2 125/16/2 124/15/2 123/14/2 122/13/2 121/12/2 120/11/2 119/10/2 118/9/2 117/8/2 116/7/2 115/6/2 114/5/2 113/4/2 112/3/2 111/2/2
f 164/1/1 165/2/1 166/3/1 167/4/1 168/5/1 169/6/1 170/7/1 194/8/1 197/9/1 201/10/1 171/11/1 172/12/1 173/13/1 207/14/1 174/15/1 161/16/1 162/17/1 175/18/1 176/19/1 177/20/1 178/21/1 179/22/1 180/23/1 181/24/1 182/25/1 215/26/1 216/27/1 198/28/1 199/29/1 202/30/1 204/31/1 205/32/1 206/33/1 208/34/1 209/35/1 210/36/1 211/37/1 212/38/1 195/39/1 191/40/1 184/41/1 185/42/1 186/43/1 188/44/1 189/45/1 190/46/1 193/47/1 196/48/1 200/49/1 203/50/1 187/51/1 163/52/1
f 118/9/55 197/9/55 194/8/55 117/8/55
f 113/4/56 167/4/56 166/3/56 112/3/56
f 138/29/57 199/29/57 198/28/57 137/28/57
f 114/5/58 168/5/58 167/4/58 113/4/58
f 158/49/59 200/49/59 196/48/59 157/48/59
f 115/6/60 169/6/60 168/5/60 114/5/60
f 119/10/61 201/10/61 197/9/61 118/9/61
f 116/7/62 170/7/62 169/6/62 115/6/62
f 139/30/63 202/30/63 199/29/63 138/29/63
f 121/12/64 172/12/64 171/11/64 120/11/64
f 159/50/65 203/50/65 200/49/65 158/49/65
f 122/13/66 173/13/66 172/12/66 121/12/66
f 120/11/67 171/11/67 201/10/67 119/10/67
f 125/16/68 161/16/68 174/15/68 124/15/68
f 140/31/69 204/31/69 202/30/69 139/30/69
f 127/18/70 175/18/70 162/17/70 126/17/70
f 160/51/71 187/51/71 203/50/71 159/50/71
f 128/19/72 176/19/72 175/18/72 127/18/72
f 141/32/73 205/32/73 204/31/73 140/31/73
f 130/21/74 178/21/74 177/20/74 129/20/74
f 137/28/75 198/28/75 216/27/75 214/27/75
f 131/22/76 179/22/76 178/21/76 130/21/76
f 142/33/77 206/33/77 205/32/77 141/32/77
f 133/24/78 181/24/78 180/23/78 132/23/78
f 123/14/51 207/14/51 173/13/51 122/13/51
f 134/25/79 182/25/79 181/24/79 133/24/79
f 143/34/80 208/34/80 206/33/80 142/33/80
f 213/26/81 215/26/81 182/25/81 134/25/81
f 132/23/82 180/23/82 179/22/82 131/22/82
f 151/42/83 185/42/83 184/41/83 150/41/83
f 124/15/84 174/15/84 207/14/84 123/14/84
f 152/43/85 186/43/85 185/42/85 151/42/85
f 144/35/86 209/35/86 208/34/86 143/34/86
f 109/52/87 163/52/87 187/51/87 160/51/87
f 145/36/88 210/36/88 209/35/88 144/35/88
f 153/44/89 188/44/89 186/43/89 152/43/89
f 146/37/90 211/37/90 210/36/90 145/36/90
f 154/45/91 189/45/91 188/44/91 153/44/91
f 147/38/92 212/38/92 211/37/92 146/37/92
f 155/46/93 190/46/93 189/45/93 154/45/93
f 148/39/94 195/39/94 212/38/94 147/38/94
f 150/41/95 184/41/95 191/40/95 149/40/95
f 129/20/96 177/20/96 176/19/96 128/19/96
f 136/53/50 192/55/50 183/54/50 135/51/50
f 156/47/97 193/47/97 190/46/97 155/46/97
f 126/17/98 162/17/98 161/16/98 125/16/98
f 117/8/99 194/8/99 170/7/99 116/7/99
f 110/1/46 164/1/46 163/52/46 109/52/46
f 149/40/27 191/40/27 195/39/27 148/39/27
f 111/2/100 165/2/100 164/1/100 110/1/100
f 157/48/101 196/48/101 193/47/101 156/47/101
f 112/3/102 166/3/102 165/2/102 111/2/102
f 135/56/103 213/26/103 214/27/103 136/57/103
f 192/57/104 216/27/104 215/26/104 183/58/104
f 136/57/105 214/27/105 216/27/105 192/57/105
f 183/58/106 215/26/106 213/26/106 135/56/106
